PathFileType	4	(x/y/z)	S08_PSF_T11
DataRate	CameraRate	NumFrames	NumMarkers	Units	OrigDataRate	OrigDataStartFrame	OrigNumFrames
240	240	7	51	mm	240	111	440
Frame#	Time	Sternum			R.Acromium			L.Acromium			Top.Head			R.ASIS			L.ASIS			R.PSIS			L.PSIS			R.Great.Tro			L.Great.Tro			R.Iliac.Crest			L.Iliac.Crest			V.Sacral			R.Thigh.Upper.Post			R.Thigh.Lower.Ant			R.Thigh.Lower.Post			R.Thigh.Upper.Ant			R.Knee.Lat			R.Knee.Med			R.Shank.Upper.Post			R.Shank.Lower.Ant			R.Shank.Lower.Post			R.Shank.Upper.Ant			R.Ankle.Lat			R.Ankle.Med			R.Heel.Upper			R.Heel.Med			R.Heel.Lat			R.Toe.Lat			R.Toe.Med			R.Toe.Tip			L.Thigh.Upper.Post			L.Thigh.Lower.Ant			L.Thigh.Lower.Post			L.Thigh.Upper.Ant			L.Knee.Lat			L.Knee.Med			L.Shank.Upper.Post			L.Shank.Lower.Ant			L.Shank.Lower.Post			L.Shank.Upper.Ant			L.Ankle.Lat			L.Ankle.Med			L.Heel.Upper			L.Heel.Med			L.Heel.Lat			L.Toe.Lat			L.Toe.Med			L.Toe.Tip			Cervical.Spine			Back			
		X1	Y1	Z1	X2	Y2	Z2	X3	Y3	Z3	X4	Y4	Z4	X5	Y5	Z5	X6	Y6	Z6	X7	Y7	Z7	X8	Y8	Z8	X9	Y9	Z9	X10	Y10	Z10	X11	Y11	Z11	X12	Y12	Z12	X13	Y13	Z13	X14	Y14	Z14	X15	Y15	Z15	X16	Y16	Z16	X17	Y17	Z17	X18	Y18	Z18	X19	Y19	Z19	X20	Y20	Z20	X21	Y21	Z21	X22	Y22	Z22	X23	Y23	Z23	X24	Y24	Z24	X25	Y25	Z25	X26	Y26	Z26	X27	Y27	Z27	X28	Y28	Z28	X29	Y29	Z29	X30	Y30	Z30	X31	Y31	Z31	X32	Y32	Z32	X33	Y33	Z33	X34	Y34	Z34	X35	Y35	Z35	X36	Y36	Z36	X37	Y37	Z37	X38	Y38	Z38	X39	Y39	Z39	X40	Y40	Z40	X41	Y41	Z41	X42	Y42	Z42	X43	Y43	Z43	X44	Y44	Z44	X45	Y45	Z45	X46	Y46	Z46	X47	Y47	Z47	X48	Y48	Z48	X49	Y49	Z49	X50	Y50	Z50	X51	Y51	Z51	

111	0.45833	-897.35	1219.3	302.88	-1010.2	1459.9	477.58	-1022.5	1488.2	143.66	-1013.3	1772.4	324.89	-918.22	1009.9	410.17	-923.48	1011.4	177.57	-1125.8	1029.1	344.75	-1124.3	1033.4	271.73	-970.49	901.03	484.39	-1031.1	908.78	117.34	-1012.7	1074.9	462.54	-1021.1	1093.1	155.78	-1139.8	992.33	298.37	-922.32	704.74	476.23	-817.43	638	438.83	-885.51	622.44	456.16	-848.74	726.78	457.67	-810.71	540.49	434.48	-844.45	528.09	310.49	-812.79	347.79	446.02	-734.89	308.46	423.05	-788.32	275.12	439.44	-759.48	382.72	433.73	-728.1	111.92	404.02	-705.82	140.24	326.15	-757	61.02	353.67	-733.69	43.043	325.89	-742.18	38.806	387.13	NaN	NaN	NaN	-566.41	121.03	322.21	-516.56	163.32	368.88	-1080.7	718.5	129.92	-1016.7	612.68	158.03	-1081.7	628.4	148.34	-1013.1	698.65	132.9	-1097	518.84	174.7	-1094.8	520.12	300.21	-1200.7	359.57	174.13	-1160.8	258.8	202.1	-1219.1	292.75	189.67	-1146.7	329.28	185.56	-1249.9	115.79	217.99	-1230.5	116.93	302.69	-1310.4	87.978	264.12	-1301.6	53.93	294.1	-1304	63.23	230.48	-1129.4	39.071	200.96	-1114.4	39.022	316.85	-1046.7	49.338	270.33	-1081.8	1517.1	304.02	-1136.1	1234.6	314.7
112	0.4625	-891.96	1218.5	303.13	-1004.8	1459.1	477.93	-1017.1	1487.5	144.02	-1008.1	1771.6	325.26	-912.68	1009.1	410.34	-918.2	1010.6	177.72	-1120.2	1028.3	345.24	-1118.7	1033.1	265.89	-964.88	900.28	484.64	-1026.2	908.24	117.54	-1007.1	1074.2	462.87	-1015.8	1092.4	156.1	-1134.3	991.61	298.85	-917.61	703.73	476.53	-812.98	636.65	439.05	-881.13	621.32	456.38	-843.93	725.51	458.13	-806.4	539.33	434.59	-840.41	526.91	310.59	-806.31	346.56	445.78	-727.85	308.3	422.77	-780.89	274.22	439.05	-753.4	382.26	433.63	-718.19	111.69	403.18	-696.3	140.55	325.4	-746.35	60.466	352.73	-722.77	42.857	324.91	-731.21	38.333	386.14	NaN	NaN	NaN	-556.54	123.31	321.39	-507.3	166.24	368.18	-1076.6	718.25	130.23	-1012.8	612.18	158.12	-1077.8	628.2	148.5	-1009	698.13	133.01	-1093.6	518.63	174.87	-1091.2	519.85	300.39	-1198.4	360.1	174.27	-1159.2	259.03	202.15	-1217.4	293.41	189.84	-1144.7	329.35	185.72	-1249.4	116.52	218.13	-1229.9	117.6	302.74	-1310	88.936	264.08	-1301.3	54.948	294.16	-1303.7	64.261	230.54	-1129.4	39.057	200.99	-1114.2	39.034	316.85	-1046.5	49.017	270.34	-1076.5	1516.4	304.37	-1130.5	1233.8	315.05
113	0.46667	-886.55	1217.7	303.4	-999.35	1458.3	478.3	-1011.6	1486.7	144.39	-1002.9	1770.8	325.63	-907.11	1008.4	410.51	-912.91	1009.8	177.87	-1114.6	1027.6	345.73	-1113	1032.8	261.12	-959.23	899.54	484.89	-1021.2	907.69	117.74	-1001.5	1073.4	463.2	-1010.6	1091.7	156.43	-1128.8	990.89	299.33	-912.82	702.75	476.8	-808.42	635.37	439.29	-876.63	620.25	456.55	-839.03	724.29	458.58	-802	538.22	434.68	-836.24	525.8	310.67	-800	345.39	445.52	-721.04	308.07	422.49	-773.74	273.36	438.65	-747.44	381.77	433.52	-708.83	111.46	402.34	-687.26	140.82	324.66	-736.29	59.962	351.77	-712.47	42.686	323.92	-720.88	37.898	385.14	NaN	NaN	NaN	-547.19	125.33	320.65	-498.53	168.83	367.58	-1072.5	717.98	130.6	-1008.9	611.67	158.22	-1073.8	627.98	148.7	-1004.8	697.63	133.14	-1090.2	518.42	175.05	-1087.5	519.57	300.6	-1196	360.65	174.43	-1157.5	259.28	202.19	-1215.6	294.06	190.04	-1142.6	329.44	185.9	-1248.9	117.27	218.25	-1229.2	118.31	302.79	-1309.6	89.965	264.03	-1301	56.034	294.21	-1303.3	65.359	230.59	-1129.3	39.043	201.02	-1114	39.054	316.85	-1046.3	48.688	270.34	-1071.2	1515.7	304.72	-1124.9	1232.9	315.41
114	0.47083	-881.11	1217	303.69	-993.9	1457.5	478.68	-1006.2	1486	144.77	-997.73	1770.1	326.02	-901.51	1007.6	410.69	-907.58	1009	178.02	-1108.9	1026.8	346.23	-1107.3	1032.4	257.33	-953.55	898.81	485.14	-1016.2	907.15	117.96	-995.9	1072.6	463.55	-1005.3	1091	156.76	-1123.3	990.18	299.82	-907.95	701.83	477.03	-803.75	634.17	439.54	-872.03	619.24	456.69	-834.04	723.13	459.02	-797.51	537.15	434.74	-831.92	524.77	310.74	-793.85	344.27	445.23	-714.46	307.78	422.2	-766.87	272.51	438.22	-741.61	381.24	433.38	-700.02	111.2	401.51	-678.71	141.02	323.92	-726.85	59.491	350.8	-702.8	42.511	322.94	-711.22	37.484	384.14	NaN	NaN	NaN	-538.38	127.07	319.98	-490.27	171.05	367.07	-1068.3	717.69	131.01	-1004.9	611.18	158.32	-1069.8	627.76	148.94	-1000.5	697.12	133.28	-1086.6	518.21	175.25	-1083.7	519.28	300.81	-1193.5	361.23	174.6	-1155.7	259.55	202.24	-1214	294.68	190.27	-1140.4	329.54	186.08	-1248.4	118.06	218.36	-1228.4	119.07	302.83	-1309.1	91.07	263.98	-1300.7	57.195	294.27	-1303	66.527	230.63	-1129.2	39.029	201.06	-1113.9	39.085	316.85	-1046.1	48.354	270.35	-1065.9	1514.9	305.1	-1119.3	1232.1	315.78
115	0.475	-875.65	1216.2	303.99	-988.45	1456.7	479.08	-1000.7	1485.3	145.17	-992.52	1769.4	326.42	-895.89	1006.9	410.89	-902.23	1008.2	178.19	-1103.1	1026.1	346.74	-1101.6	1032	254.44	-947.84	898.11	485.39	-1011.2	906.61	118.19	-990.25	1071.9	463.9	-999.97	1090.3	157.09	-1117.8	989.47	300.31	-902.98	700.95	477.22	-798.95	633.05	439.79	-867.32	618.29	456.78	-828.95	722.03	459.45	-792.92	536.15	434.79	-827.44	523.84	310.78	-787.87	343.2	444.92	-708.11	307.42	421.89	-760.26	271.68	437.77	-735.89	380.67	433.23	-691.78	110.9	400.68	-670.67	141.12	323.19	-718.04	59.04	349.83	-693.78	42.313	321.97	-702.24	37.076	383.15	NaN	NaN	NaN	-530.1	128.5	319.38	-482.51	172.89	366.65	-1064.1	717.38	131.47	-1000.9	610.68	158.44	-1065.7	627.52	149.21	-996.18	696.63	133.43	-1082.9	518	175.47	-1079.7	518.99	301.04	-1191	361.83	174.79	-1153.9	259.84	202.28	-1212.4	295.28	190.55	-1138.1	329.66	186.26	-1247.8	118.89	218.46	-1227.7	119.88	302.87	-1308.7	92.262	263.92	-1300.3	58.433	294.31	-1302.6	67.768	230.67	-1129.1	39.016	201.1	-1113.7	39.124	316.85	-1045.8	48.017	270.35	-1060.6	1514.2	305.49	-1113.7	1231.3	316.16
116	0.47917	-870.16	1215.5	304.32	-983	1456	479.5	-995.27	1484.6	145.58	-987.3	1768.6	326.84	-890.24	1006.2	411.1	-896.85	1007.4	178.36	-1097.4	1025.3	347.25	-1095.9	1031.6	252.34	-942.11	897.42	485.65	-1006.1	906.07	118.43	-984.58	1071.1	464.26	-994.61	1089.7	157.43	-1112.2	988.76	300.8	-897.92	700.13	477.37	-794.04	632.01	440.03	-862.48	617.39	456.84	-823.78	721	459.86	-788.21	535.2	434.8	-822.79	522.99	310.79	-782.04	342.19	444.6	-701.99	306.98	421.57	-753.93	270.86	437.31	-730.28	380.05	433.05	-684.11	110.56	399.86	-663.13	141.13	322.46	-709.87	58.596	348.85	-685.42	42.078	321.02	-693.96	36.665	382.17	NaN	NaN	NaN	-522.36	129.61	318.84	-475.23	174.32	366.3	-1059.9	717.05	131.97	-996.7	610.2	158.57	-1061.5	627.28	149.53	-991.76	696.15	133.6	-1079.2	517.79	175.7	-1075.7	518.68	301.28	-1188.4	362.46	175	-1152.1	260.15	202.34	-1210.9	295.83	190.87	-1135.8	329.8	186.45	-1247.3	119.76	218.54	-1226.8	120.74	302.91	-1308.1	93.548	263.86	-1300	59.754	294.36	-1302.1	69.085	230.7	-1129	39.006	201.13	-1113.5	39.175	316.86	-1045.6	47.677	270.35	-1055.3	1513.5	305.9	-1108.1	1230.4	316.54
117	0.48333	-864.65	1214.8	304.67	-977.54	1455.2	479.93	-989.8	1483.9	146	-982.07	1767.9	327.27	-884.56	1005.5	411.33	-891.43	1006.7	178.55	-1091.6	1024.6	347.77	-1090.2	1031.1	250.94	-936.35	896.75	485.92	-1001	905.53	118.69	-978.88	1070.4	464.62	-989.2	1089	157.78	-1106.6	988.07	301.3	-892.77	699.35	477.48	-789	631.06	440.26	-857.52	616.56	456.86	-818.51	720.04	460.26	-783.39	534.31	434.78	-817.97	522.24	310.78	-776.37	341.22	444.25	-696.08	306.46	421.24	-747.86	270.05	436.84	-724.76	379.39	432.85	-677	110.15	399.05	-656.09	141.01	321.75	-702.33	58.151	347.88	-677.72	41.794	320.09	-686.36	36.241	381.21	NaN	NaN	NaN	-515.16	130.36	318.37	-468.44	175.32	366.03	-1055.6	716.72	132.51	-992.44	609.72	158.7	-1057.3	627.02	149.89	-987.28	695.68	133.78	-1075.3	517.57	175.94	-1071.5	518.36	301.53	-1185.6	363.11	175.21	-1150.1	260.48	202.39	-1209.6	296.33	191.24	-1133.3	329.96	186.64	-1246.6	120.69	218.6	-1225.9	121.64	302.93	-1307.6	94.938	263.8	-1299.5	61.161	294.4	-1301.7	70.48	230.73	-1128.9	38.999	201.17	-1113.3	39.237	316.87	-1045.4	47.338	270.34	-1049.9	1512.8	306.33	-1102.4	1229.6	316.93
